<svg fill="none"
    xmlns="http://www.w3.org/2000/svg">
    <rect width="200" height="200" fill="white"/>
    <path d="M108.269 63.2162C88.5016 65.824 90.5809 82.7746 94.0914 90.924C91.7961 89.7016 86.3142 86.8493 82.7497 85.2194C78.294 83.1821 71.813 85.6269 70.5978 86.4419C69.3826 87.2568 65.332 96.6285 67.7624 111.705C70.1927 126.781 81.5345 132.486 88.4206 135.338C95.3066 138.19 110.699 137.783 122.041 130.856C133.383 123.929 132.167 111.297 128.117 106.815C124.876 103.229 124.336 96.3569 124.471 93.3688C127.307 82.2314 128.036 60.6085 108.269 63.2162Z" fill="#F7D23D" stroke="black"/>
    <path d="M124.187 83.3262C120.512 81.354 117.645 88.8045 115 92.7763C119.037 96.3372 126.108 99.1037 130.451 94.8307C134.793 90.5576 127.388 93.2817 125.022 92.3654C126.201 92.2563 129.996 89.7431 131.286 89.4893C135.462 88.6676 133.791 84.148 132.956 84.5589C132.121 84.9697 128.78 85.7915 124.187 83.3262Z" fill="#E05050"/>
    <path d="M120.846 91.1328C121.135 91.4168 122.384 92.6097 125.022 92.3654M125.022 92.3654C126.201 92.2563 129.996 89.7431 131.286 89.4893C135.462 88.6676 133.791 84.148 132.956 84.5589C132.121 84.9697 128.78 85.7915 124.187 83.3262C120.512 81.354 117.645 88.8045 115 92.7763C119.037 96.3372 126.108 99.1037 130.451 94.8307C134.793 90.5576 127.388 93.2817 125.022 92.3654Z" stroke="black"/>
    <path d="M85.8869 107.197C99.2754 105.536 100.718 113.707 99.7652 118L76.4987 115.507C71.6004 100.965 80.1723 98.8878 81.3969 102.627C82.3765 105.619 84.7984 106.92 85.8869 107.197Z" fill="#F7D23D"/>
    <path d="M99.7652 118C100.718 113.707 99.2754 105.536 85.8869 107.197C84.7984 106.92 82.3765 105.619 81.3969 102.627C80.1723 98.8878 71.6004 100.965 76.4987 115.507" stroke="black"/>
</svg>
