<svg width="200" height="200" viewBox="0 0 200 200" fill="none" xmlns="http://www.w3.org/2000/svg">
<path d="M119.5 90L124.5 87.5V90L119.5 92.5C119.5 93.3333 119.1 94.9 117.5 94.5C115.9 94.1 116.833 92.3333 117.5 91.5C116.5 91 116 89 117.5 88C118.7 87.2 119.333 88.8333 119.5 90Z" fill="white" stroke="black" stroke-miterlimit="16"/>
<path d="M132.833 82.5L129 84.5H131.5L133.083 83.875L133.583 84.875L134.333 84.5C134.833 85.5 137.833 86.5 137.833 84.5C137.833 82.5 136.167 82.8333 135.333 83L135.333 83C135.833 82.5 136.333 80 133.833 80C132.568 80 132.667 81.5 132.833 82.5Z" fill="white" stroke="black" stroke-miterlimit="2.9238"/>
</svg>
